<?xml version="1.0" encoding="utf-8"?><svg viewBox="0 0 190 78" xmlns="http://www.w3.org/2000/svg" xmlns:xlink="http://www.w3.org/1999/xlink"><style>:root>svg{display:none}:root>svg:target{display:block}</style><svg viewBox="0 0 16 10" id="arrow-bottom" xmlns="http://www.w3.org/2000/svg"><path d="M7.113 9.23L.325 2.009a1.23 1.23 0 010-1.664 1.06 1.06 0 011.563 0l6.007 6.392L13.902.345a1.06 1.06 0 011.563 0 1.23 1.23 0 010 1.663L8.677 9.231c-.216.23-.5.344-.782.344a1.07 1.07 0 01-.782-.344z"/></svg><svg fill="none" viewBox="0 0 32 34" id="cart-icon" xmlns="http://www.w3.org/2000/svg"><path d="M7.13 7.769h22.582a1 1 0 01.969 1.248l-1.9 7.434a3 3 0 01-2.907 2.256H9.025M0 1.5h4.652a2 2 0 011.975 1.685l3.02 18.971a2 2 0 001.975 1.686h16.581M15.769 30.266c0 1.302-1.01 2.31-2.2 2.31-1.188 0-2.199-1.008-2.199-2.31 0-1.303 1.01-2.31 2.2-2.31 1.188 0 2.199 1.007 2.199 2.31zM28.746 30.266c0 1.302-1.01 2.31-2.2 2.31-1.188 0-2.199-1.008-2.199-2.31 0-1.303 1.01-2.31 2.2-2.31 1.188 0 2.199 1.007 2.199 2.31z" stroke="#000" stroke-width="1.5"/></svg><svg fill="none" viewBox="0 0 11 17" id="footer-location-icon" xmlns="http://www.w3.org/2000/svg"><path d="M5.5 0C2.467 0 0 2.681 0 5.977c0 1.113.284 2.2.821 3.142l4.366 7.646a.451.451 0 00.39.235h.003a.453.453 0 00.39-.242l4.254-7.72A6.365 6.365 0 0011 5.978C11 2.68 8.533 0 5.5 0zm3.938 8.527l-3.869 7.018L1.6 8.595a5.298 5.298 0 01-.69-2.618C.91 3.23 2.974.989 5.5.989c2.527 0 4.586 2.241 4.586 4.988 0 .9-.226 1.782-.648 2.55z" fill="#fff"/><path d="M5.5 2.52c-1.685 0-3.056 1.412-3.056 3.148 0 1.724 1.349 3.148 3.056 3.148 1.728 0 3.055-1.442 3.055-3.148 0-1.736-1.37-3.148-3.055-3.148zm0 5.253c-1.13 0-2.044-.945-2.044-2.105 0-1.158.92-2.106 2.044-2.106 1.123 0 2.04.948 2.04 2.106 0 1.143-.893 2.105-2.04 2.105z" fill="#fff"/></svg><svg fill="none" viewBox="0 0 16 16" id="hours-icon" xmlns="http://www.w3.org/2000/svg"><circle cx="8" cy="8" r="7.5" stroke="#fff"/><rect width="1" height="5" rx=".5" transform="matrix(-1 0 0 1 8 4)" fill="#fff"/><rect width="1" height="4" rx=".5" transform="matrix(0 1 1 0 7 8)" fill="#fff"/></svg><svg fill="none" viewBox="0 0 64 64" id="icon01" xmlns="http://www.w3.org/2000/svg"><path d="M63.224 35.193c-.357-1.28-.694-2.488-.694-3.592 0-1.103.337-2.312.694-3.591.57-2.036 1.156-4.143.454-6.19-.73-2.13-2.546-3.521-4.303-4.865-1.053-.807-2.048-1.568-2.694-2.406-.656-.855-1.12-1.995-1.61-3.203-.809-1.984-1.644-4.036-3.513-5.325-1.84-1.27-4.135-1.392-6.351-1.509-1.383-.073-2.69-.143-3.786-.48-1.023-.314-2.084-.967-3.205-1.658C36.412 1.261 34.366 0 32 0c-2.367 0-4.413 1.261-6.217 2.376-1.122.69-2.18 1.345-3.204 1.658-1.097.337-2.404.407-3.787.48-2.218.118-4.51.239-6.351 1.508-1.87 1.289-2.704 3.34-3.513 5.324-.492 1.208-.957 2.35-1.614 3.204-.645.841-1.64 1.602-2.693 2.41-1.756 1.345-3.57 2.735-4.299 4.861-.702 2.049-.115 4.154.452 6.192.358 1.279.695 2.486.695 3.59 0 1.103-.337 2.312-.695 3.591C.206 37.23-.38 39.337.321 41.387c.73 2.127 2.545 3.519 4.3 4.862 1.054.805 2.048 1.568 2.692 2.406.658.855 1.123 1.995 1.614 3.204.809 1.984 1.645 4.037 3.516 5.328 1.838 1.267 4.132 1.388 6.348 1.505 1.383.073 2.69.143 3.785.48 1.024.314 2.083.967 3.203 1.657 1.805 1.111 3.852 2.374 6.22 2.374s4.415-1.263 6.223-2.376c1.12-.69 2.177-1.342 3.202-1.657 1.095-.337 2.403-.407 3.786-.48 2.217-.116 4.51-.237 6.348-1.504 1.874-1.291 2.708-3.347 3.517-5.332.49-1.207.954-2.347 1.608-3.199.645-.838 1.64-1.6 2.693-2.406 1.757-1.345 3.573-2.735 4.303-4.864.703-2.05.114-4.154-.455-6.192zm-2.181 5.312c-.46 1.343-1.876 2.426-3.373 3.572-1.147.88-2.336 1.789-3.204 2.916-.88 1.148-1.437 2.514-1.975 3.837-.686 1.687-1.334 3.28-2.526 4.101-1.189.82-2.993.914-4.904 1.014-1.493.079-3.039.16-4.466.6-1.365.421-2.628 1.198-3.848 1.95-1.635 1.009-3.178 1.96-4.748 1.96-1.571 0-3.112-.951-4.747-1.96-1.219-.751-2.48-1.529-3.847-1.95-1.427-.439-2.973-.521-4.466-.6-1.911-.1-3.717-.196-4.903-1.014-1.191-.821-1.841-2.414-2.527-4.1-.538-1.323-1.096-2.69-1.978-3.838-.867-1.127-2.055-2.037-3.204-2.917-1.496-1.146-2.91-2.227-3.37-3.571-.43-1.252.023-2.87.5-4.583.39-1.4.793-2.845.793-4.322 0-1.477-.404-2.921-.793-4.321-.479-1.712-.93-3.33-.5-4.581.46-1.344 1.873-2.425 3.369-3.57 1.149-.882 2.338-1.793 3.203-2.92.885-1.15 1.442-2.518 1.982-3.84.684-1.687 1.332-3.278 2.522-4.097 1.188-.82 2.995-.915 4.908-1.015 1.491-.08 3.037-.16 4.463-.6 1.367-.42 2.63-1.2 3.852-1.953 1.632-1.004 3.173-1.955 4.743-1.955 1.569 0 3.112.95 4.745 1.958 1.221.754 2.483 1.532 3.85 1.952 1.427.439 2.971.52 4.464.6 1.913.1 3.718.197 4.907 1.016 1.19.822 1.839 2.413 2.523 4.096.54 1.324 1.095 2.692 1.98 3.84.866 1.127 2.055 2.036 3.202 2.916 1.497 1.147 2.912 2.23 3.373 3.576.43 1.25-.024 2.866-.501 4.578-.391 1.4-.795 2.846-.795 4.323 0 1.477.403 2.922.795 4.32.478 1.713.93 3.33.5 4.582z" fill="#fff"/><path d="M31.999 10.99c-11.507 0-20.868 9.246-20.868 20.61 0 11.365 9.361 20.61 20.868 20.61 11.506 0 20.868-9.245 20.868-20.61 0-11.364-9.362-20.61-20.868-20.61zm0 38.472c-9.972 0-18.086-8.013-18.086-17.862 0-9.848 8.114-17.861 18.086-17.861 5.143 0 9.78 2.142 13.077 5.558L31.818 37.723l-7.183-7.094a1.402 1.402 0 00-1.967 0 1.36 1.36 0 000 1.943l8.347 8.244a1.395 1.395 0 001.1.397 1.39 1.39 0 001.018-.573L46.9 21.503a17.598 17.598 0 013.183 10.098c0 9.848-8.113 17.861-18.085 17.861z" fill="#fff"/></svg><svg fill="none" viewBox="0 0 92 60" id="icon02" xmlns="http://www.w3.org/2000/svg"><path d="M85.7 25.436l-2.33-9.825c.636-.143 1.114-.739 1.114-1.452v-1.584c0-3.44-2.655-6.238-5.918-6.238H67.95V3.069C67.95 1.377 66.644 0 65.038 0H10.925C9.319 0 8.012 1.377 8.012 3.07V30c0 .82.631 1.485 1.41 1.485.778 0 1.409-.664 1.409-1.485V3.07c0-.055.042-.1.094-.1h54.113c.051 0 .093.045.093.1V30c0 .82.631 1.486 1.41 1.486.778 0 1.409-.665 1.409-1.485v-1.684H84.58c2.045.002 3.782 1.417 4.379 3.366h-4.382c-.778 0-1.41.665-1.41 1.486v3.168c0 2.566 1.982 4.653 4.416 4.653h1.597v6.535h-3.684c-1.21-3.683-4.533-6.337-8.435-6.337-3.901 0-7.224 2.654-8.434 6.337h-.678V36.337c0-.82-.631-1.485-1.41-1.485-.778 0-1.409.665-1.409 1.485v11.188H35.894c-1.21-3.684-4.533-6.337-8.435-6.337-3.901 0-7.224 2.653-8.434 6.337h-8.1a.096.096 0 01-.094-.1v-3.267h6.106c.779 0 1.41-.665 1.41-1.485 0-.82-.631-1.485-1.41-1.485H3.41c-.778 0-1.409.665-1.409 1.485 0 .82.63 1.485 1.41 1.485h4.603v3.268c0 1.692 1.306 3.07 2.912 3.07h7.612l-.002.098c0 5.187 4.003 9.406 8.924 9.406 4.921 0 8.925-4.22 8.925-9.406l-.002-.099H68.14l-.002.1c0 5.186 4.003 9.405 8.924 9.405 4.921 0 8.925-4.22 8.925-9.406l-.002-.099h4.606c.778 0 1.409-.665 1.409-1.485V33.168c0-3.91-2.738-7.16-6.3-7.732zM67.95 9.307h10.616c1.71 0 3.1 1.466 3.1 3.268v.099H67.95V9.306zm0 16.04v-9.703h12.522l2.302 9.703H67.95zM27.46 57.03c-3.368 0-6.107-2.887-6.107-6.436 0-3.548 2.74-6.435 6.106-6.435 3.367 0 6.107 2.887 6.107 6.435 0 3.55-2.74 6.436-6.107 6.436zm49.603 0c-3.367 0-6.107-2.887-6.107-6.436 0-3.548 2.74-6.435 6.107-6.435s6.106 2.887 6.106 6.435c0 3.55-2.74 6.436-6.106 6.436zm12.119-19.01h-1.597c-.88 0-1.597-.755-1.597-1.683v-1.683h3.194v3.366z" fill="#fff"/><path d="M27.5 48a2.503 2.503 0 00-2.5 2.5c0 1.379 1.121 2.5 2.5 2.5s2.5-1.121 2.5-2.5-1.121-2.5-2.5-2.5zM77.103 48a2.503 2.503 0 00-2.5 2.5c0 1.379 1.122 2.5 2.5 2.5 1.38 0 2.5-1.121 2.5-2.5s-1.12-2.5-2.5-2.5zM34.453 37H13.41c-.778 0-1.409.679-1.409 1.516 0 .838.63 1.516 1.41 1.516h21.043c.778 0 1.41-.678 1.41-1.516 0-.837-.632-1.516-1.41-1.516zM19.447 33H1.409C.631 33 0 33.679 0 34.516c0 .838.63 1.516 1.41 1.516h18.037c.778 0 1.41-.678 1.41-1.516 0-.837-.632-1.516-1.41-1.516zM51.003 14.999a1.34 1.34 0 00-1.993 0L36.478 28.482l-6.52-7.014a1.34 1.34 0 00-1.992 0 1.598 1.598 0 000 2.144l7.516 8.086c.275.296.636.444.996.444s.721-.148.996-.444l13.529-14.555c.55-.592.55-1.552 0-2.144z" fill="#fff"/></svg><svg fill="none" viewBox="0 0 74 78" id="icon03" xmlns="http://www.w3.org/2000/svg"><path d="M22.315 13.563c-.625 0-1.132.545-1.132 1.218 0 1.476-1.117 2.678-2.49 2.678-1.372 0-2.488-1.201-2.488-2.678 0-1.477 1.116-2.678 2.489-2.678.625 0 1.131-.545 1.131-1.218 0-.672-.506-1.217-1.131-1.217-2.62 0-4.752 2.294-4.752 5.113 0 2.819 2.132 5.112 4.752 5.112 2.62 0 4.752-2.293 4.752-5.112 0-.673-.507-1.218-1.131-1.218zM22.315 27.846c-.625 0-1.132.546-1.132 1.218 0 1.477-1.117 2.678-2.49 2.678-1.372 0-2.488-1.201-2.488-2.678 0-1.477 1.116-2.678 2.489-2.678.625 0 1.131-.545 1.131-1.218 0-.672-.506-1.217-1.131-1.217-2.62 0-4.752 2.294-4.752 5.113 0 2.819 2.132 5.112 4.752 5.112 2.62 0 4.752-2.293 4.752-5.112 0-.672-.507-1.218-1.131-1.218zM40.687 31.308h-8.449c-.624 0-1.131.545-1.131 1.217 0 .673.506 1.218 1.131 1.218h8.449c.624 0 1.131-.545 1.131-1.218 0-.672-.506-1.217-1.131-1.217zM40.687 26.114h-8.449c-.624 0-1.131.545-1.131 1.217 0 .673.506 1.218 1.131 1.218h8.449c.624 0 1.131-.545 1.131-1.218 0-.672-.506-1.217-1.131-1.217zM38.273 45.59h-6.035c-.624 0-1.131.546-1.131 1.218 0 .673.506 1.218 1.131 1.218h6.035c.625 0 1.131-.545 1.131-1.218 0-.672-.506-1.217-1.131-1.217zM40.687 40.397h-8.449c-.624 0-1.131.545-1.131 1.218 0 .672.506 1.217 1.131 1.217h8.449c.624 0 1.131-.545 1.131-1.218 0-.672-.506-1.217-1.131-1.217zM51.548 17.025h-19.31c-.624 0-1.131.545-1.131 1.217s.506 1.217 1.131 1.217h19.31c.625 0 1.132-.545 1.132-1.217s-.507-1.217-1.132-1.217zM46.72 11.83H32.239c-.624 0-1.131.546-1.131 1.218 0 .672.506 1.217 1.131 1.217h14.483c.625 0 1.131-.545 1.131-1.217s-.506-1.217-1.131-1.217zM22.315 42.13c-.625 0-1.132.545-1.132 1.217 0 1.477-1.117 2.678-2.49 2.678-1.372 0-2.488-1.201-2.488-2.678 0-1.477 1.116-2.678 2.489-2.678.625 0 1.131-.545 1.131-1.217 0-.673-.506-1.218-1.131-1.218-2.62 0-4.752 2.294-4.752 5.113 0 2.819 2.132 5.113 4.752 5.113 2.62 0 4.752-2.294 4.752-5.113 0-.672-.507-1.217-1.131-1.217z" fill="#fff"/><path d="M58.487 0H4.651C2.087 0 0 1.711 0 3.814V58.35c0 2.103 2.086 3.814 4.651 3.814H31.57c.82 0 1.485-.545 1.485-1.217s-.665-1.218-1.485-1.218H4.651c-.927 0-1.682-.618-1.682-1.38V3.815c0-.76.755-1.38 1.682-1.38h53.836c.928 0 1.682.62 1.682 1.38v40.253c0 .672.665 1.217 1.485 1.217.82 0 1.484-.545 1.484-1.217V3.814C63.138 1.711 61.052 0 58.487 0z" fill="#fff"/><path d="M70.276 49.365a3.965 3.965 0 00-2.935.887c-.662-1.196-1.792-2.045-3.1-2.186a3.966 3.966 0 00-2.934.888c-.663-1.197-1.793-2.045-3.1-2.186a3.928 3.928 0 00-2.31.466V31.73c0-1.258-.497-2.465-1.366-3.31a3.983 3.983 0 00-3.206-1.13c-2.089.225-3.725 2.257-3.725 4.626v15.541l-3.326 3.579c-1.767 1.901-2.48 4.6-1.908 7.217L44.89 69.8c1.023 4.679 4.857 7.946 9.325 7.946H64.42c5.282 0 9.58-4.623 9.58-10.306V53.99c0-2.369-1.637-4.4-3.725-4.625zm1.461 18.074c0 4.34-3.282 7.872-7.316 7.872H54.216c-3.412 0-6.341-2.496-7.123-6.069l-2.525-11.546c-.391-1.791.097-3.637 1.306-4.938L47.6 50.9v4.203c0 .672.506 1.217 1.131 1.217s1.132-.545 1.132-1.217V31.916c0-1.133.741-2.1 1.687-2.203a1.791 1.791 0 011.463.513c.395.385.622.933.622 1.506v21.424c0 .672.506 1.218 1.131 1.218s1.132-.545 1.132-1.218V51.21c0-.573.226-1.121.62-1.506.4-.389.92-.572 1.464-.513.946.102 1.687 1.07 1.687 2.204v3.06c0 .673.507 1.218 1.132 1.218.624 0 1.131-.545 1.131-1.218v-1.947c0-.572.226-1.121.621-1.505.4-.39.92-.572 1.463-.514.946.102 1.688 1.07 1.688 2.204v3.06c0 .673.506 1.218 1.131 1.218s1.132-.545 1.132-1.217v-1.948c0-.572.226-1.12.62-1.505.4-.39.92-.572 1.464-.513.946.102 1.687 1.07 1.687 2.203v13.45z" fill="#fff"/></svg><svg fill="none" viewBox="0 0 67 66" id="icon04" xmlns="http://www.w3.org/2000/svg"><path d="M66.188 36.696c-.374-1.334-.727-2.595-.727-3.745s.353-2.411.727-3.745c.596-2.123 1.21-4.32.475-6.454-.763-2.22-2.666-3.672-4.505-5.073-1.102-.841-2.144-1.635-2.82-2.509-.687-.89-1.174-2.08-1.686-3.34-.846-2.068-1.72-4.208-3.678-5.552-1.925-1.324-4.328-1.451-6.648-1.573-1.448-.076-2.817-.15-3.963-.5-1.072-.328-2.182-1.009-3.356-1.73C38.118 1.316 35.977 0 33.5 0c-2.478 0-4.62 1.315-6.509 2.477-1.174.72-2.28 1.403-3.354 1.73-1.148.35-2.517.423-3.964.5-2.322.122-4.722.249-6.649 1.572-1.957 1.344-2.831 3.483-3.677 5.552-.516 1.26-1.002 2.45-1.69 3.34-.676.878-1.717 1.671-2.82 2.514C3 19.087 1.1 20.535.337 22.753c-.735 2.136-.12 4.331.474 6.456.374 1.334.726 2.593.726 3.743s-.352 2.411-.726 3.745C.215 38.82-.4 41.017.336 43.154c.763 2.218 2.664 3.67 4.502 5.07 1.103.84 2.144 1.635 2.818 2.509.69.89 1.176 2.08 1.69 3.34.846 2.07 1.721 4.21 3.68 5.556 1.924 1.321 4.326 1.448 6.646 1.57 1.447.075 2.816.148 3.962.5 1.072.327 2.18 1.008 3.353 1.727 1.89 1.159 4.033 2.476 6.512 2.476 2.479 0 4.622-1.317 6.514-2.477 1.173-.72 2.28-1.4 3.353-1.728 1.146-.351 2.515-.424 3.963-.5 2.321-.122 4.721-.248 6.645-1.569 1.962-1.347 2.836-3.49 3.682-5.56.514-1.258 1-2.447 1.684-3.335.676-.874 1.717-1.67 2.82-2.509 1.839-1.402 3.74-2.852 4.504-5.071.736-2.138.12-4.333-.476-6.457zm-2.284 5.538c-.482 1.401-1.963 2.53-3.53 3.725-1.202.917-2.446 1.865-3.354 3.04-.922 1.198-1.505 2.622-2.069 4.002-.718 1.759-1.396 3.42-2.644 4.276-1.244.854-3.133.953-5.134 1.057-1.563.082-3.181.167-4.675.625-1.429.44-2.751 1.25-4.029 2.034-1.711 1.052-3.326 2.043-4.97 2.043-1.645 0-3.258-.991-4.97-2.043-1.276-.783-2.596-1.594-4.027-2.034-1.494-.457-3.112-.543-4.675-.625-2-.104-3.891-.205-5.134-1.057-1.246-.857-1.926-2.517-2.644-4.275-.564-1.38-1.148-2.805-2.071-4.003-.908-1.175-2.152-2.123-3.355-3.041-1.565-1.195-3.045-2.322-3.527-3.724-.45-1.305.023-2.992.523-4.778.408-1.46.83-2.967.83-4.507 0-1.54-.422-3.045-.83-4.505-.501-1.785-.973-3.472-.523-4.777.482-1.4 1.96-2.528 3.526-3.723 1.203-.918 2.448-1.868 3.354-3.044.926-1.198 1.509-2.625 2.074-4.005.717-1.758 1.395-3.417 2.64-4.27 1.244-.856 3.136-.955 5.139-1.06 1.561-.082 3.18-.167 4.672-.625 1.431-.439 2.754-1.251 4.033-2.036 1.708-1.047 3.322-2.039 4.965-2.039 1.642 0 3.258.992 4.967 2.042 1.28.786 2.6 1.597 4.032 2.036 1.492.457 3.11.541 4.672.624 2.002.105 3.893.207 5.137 1.06 1.246.857 1.925 2.516 2.642 4.271.565 1.381 1.146 2.807 2.072 4.004.907 1.175 2.151 2.123 3.353 3.04 1.567 1.197 3.048 2.326 3.53 3.73.45 1.302-.025 2.988-.524 4.773-.41 1.46-.832 2.967-.832 4.507 0 1.54.421 3.047.832 4.506.5 1.785.974 3.471.524 4.776z" fill="#fff"/><path d="M33.501 10.008c-12.883 0-23.326 10.274-23.326 22.946C10.175 45.627 20.618 55.9 33.5 55.9c12.883 0 23.327-10.273 23.327-22.946-.015-12.667-10.45-22.932-23.327-22.946zm0 43.706c-11.656 0-21.105-9.294-21.105-20.76 0-11.466 9.449-20.76 21.105-20.76s21.105 9.294 21.105 20.76c-.013 11.46-9.455 20.748-21.105 20.76z" fill="#fff"/><path d="M22.718 42.015l19.994-19.668 1.571 1.545L24.29 43.561l-1.57-1.546zM40.166 35.14c-2.454 0-4.443 1.956-4.443 4.37s1.989 4.37 4.443 4.37c2.454 0 4.443-1.956 4.443-4.37s-1.99-4.37-4.443-4.37zm0 6.555c-1.227 0-2.222-.978-2.222-2.185s.995-2.185 2.222-2.185c1.227 0 2.221.978 2.221 2.185s-.994 2.185-2.221 2.185zM26.837 30.768c2.453 0 4.443-1.956 4.443-4.37s-1.99-4.37-4.443-4.37c-2.455 0-4.443 1.956-4.443 4.37s1.988 4.37 4.443 4.37zm0-6.555c1.227 0 2.221.978 2.221 2.185s-.994 2.185-2.221 2.185-2.222-.978-2.222-2.185.995-2.185 2.222-2.185z" fill="#fff"/></svg><svg viewBox="0 0 28 27" id="like" xmlns="http://www.w3.org/2000/svg"><path d="M20.1 0A7.917 7.917 0 0014 2.872 7.917 7.917 0 007.9 0C3.544 0 0 3.525 0 7.857c0 3.392 2.034 7.316 6.045 11.663 3.087 3.345 6.445 5.934 7.4 6.649l.555.414.554-.414c.956-.715 4.314-3.304 7.4-6.649C25.967 15.174 28 11.25 28 7.857 28 3.525 24.456 0 20.1 0zm.495 18.278c-2.54 2.751-5.27 4.975-6.595 6-1.325-1.025-4.056-3.249-6.595-6-3.637-3.94-5.559-7.544-5.559-10.42 0-3.32 2.716-6.022 6.054-6.022a6.063 6.063 0 015.293 3.108L14 6.392l.807-1.448A6.063 6.063 0 0120.1 1.836c3.338 0 6.054 2.701 6.054 6.021 0 2.877-1.922 6.48-5.56 10.421z"/></svg><svg viewBox="0 0 17 25" id="location" xmlns="http://www.w3.org/2000/svg"><path d="M8.5 0C3.813 0 0 3.85 0 8.584c0 1.6.439 3.16 1.269 4.514L8.016 24.08c.13.21.357.338.602.338h.006a.707.707 0 00.602-.348L15.8 12.983A8.64 8.64 0 0017 8.584C17 3.851 13.187 0 8.5 0zm6.085 12.248l-5.978 10.08-6.134-9.984a7.197 7.197 0 01-1.066-3.76c0-3.944 3.187-7.163 7.093-7.163s7.088 3.219 7.088 7.163a7.2 7.2 0 01-1.003 3.664z"/><path d="M8.496 3.617c-2.603 0-4.722 2.029-4.722 4.522 0 2.477 2.084 4.522 4.722 4.522 2.671 0 4.723-2.072 4.723-4.522 0-2.493-2.119-4.522-4.723-4.522zm0 7.547c-1.745 0-3.158-1.359-3.158-3.025 0-1.662 1.423-3.024 3.158-3.024 1.736 0 3.154 1.362 3.154 3.024 0 1.642-1.38 3.025-3.154 3.025z"/></svg><svg fill="none" viewBox="0 0 190 43" id="logo" xmlns="http://www.w3.org/2000/svg"><path fill-rule="evenodd" clip-rule="evenodd" d="M95.918 38.354s1.126-.546 3.101-1.28c1.018.486 3.248 1.5 5.408 2.124 2.924.844 4.872.715 7.601.715 2.728 0 6.625-.455 6.625-.455s-.584-2.144-.649-3.703c-.065-1.559-.065-1.819-.065-1.819s-.585 2.21-.455 3.378c.13 1.17.13 1.56.13 1.56s-5.132.52-8.769.13c-3.638-.39-5.847-.78-7.406-1.3a62.705 62.705 0 00-2.241-.697 63.055 63.055 0 0112.245-3.135c9.094-1.365 7.275-.91 7.275-.91s.195-.39 1.364-.52c1.17-.13 13.122-.714 16.825-.454 3.703.26 13.901.78 15.395 1.754 1.494.974 2.079 1.948 1.624 4.352-.454 2.403-1.364 4.742-2.208 4.222-.845-.52-3.703-2.728-6.431-3.118-2.728-.39-5.717-.325-6.951 0s-3.313 1.624-4.287 1.3c-.975-.325-2.923-2.144-4.482-1.495-1.559.65-1.624.845-2.339 1.754-.714.91-1.689 1.95-2.468.975-.78-.975-2.209-1.43-3.443-1.495-1.234-.064-2.339.325-2.664.65-.325.325-.779.974-.779.974s-2.014-.519-4.353-.26c-2.338.26-6.365.456-9.094-.064-2.728-.52-8.51-3.183-8.51-3.183zm24.554.78s2.599-.456 3.573.259c.975.715 1.169 1.3 2.923-.13 1.754-1.43 2.858-2.469 4.807-1.43 1.949 1.04 2.859 1.69 4.742.715 1.884-.974 5.977-2.013 9.42-.584 3.442 1.429 6.106 3.703 6.625 2.273.52-1.429.78-2.988-1.883-3.572-2.664-.585-6.626-1.235-10.264-.65-3.638.585-4.287 2.273-5.781 1.819-1.495-.455-3.118-1.819-4.937-1.105-1.819.715-3.378 2.924-4.872 2.21-1.494-.715-2.534-1.365-3.443-.91-.91.454-.91 1.104-.91 1.104z" fill="#1F1C21"/><path d="M1.522.343v9.66h.445c.034-.554.12-1.114.262-1.673a10.22 10.22 0 01.537-1.627c.217-.514.468-.982.753-1.405.28-.416.588-.753.914-1.016.24-.2.548-.388.93-.57.383-.184.84-.332 1.371-.446.537-.12 1.148-.177 1.844-.183h7.262L.562 24.116l.069.206h22.095v-11.1h-.445a22.411 22.411 0 01-.189 1.914 15.474 15.474 0 01-.4 1.884 9.22 9.22 0 01-.673 1.701 5.33 5.33 0 01-1 1.353c-.496.463-1.021.8-1.57 1.017a6.283 6.283 0 01-1.655.41c-.548.063-1.073.086-1.57.08H7.687L22.897.548l-.17-.205H1.521zm28.09 20.142c.005.28-.006.565-.04.862a3.044 3.044 0 01-.229.88 2.25 2.25 0 01-.588.793c-.257.211-.542.377-.868.486-.32.114-.65.194-.993.24-.343.045-.668.079-.982.097l-.582.034v.445h24.047V13.908h-.445l-.102 1.062a19.67 19.67 0 01-.235 1.696 7.09 7.09 0 01-.525 1.644c-.24.537-.594 1.028-1.056 1.49a4.882 4.882 0 01-.628.525c-.275.2-.622.395-1.05.583a7.46 7.46 0 01-1.542.48c-.6.125-1.296.188-2.09.193h-7.845V4.18c-.005-.2.006-.45.04-.748a3.64 3.64 0 01.229-.925c.126-.32.32-.604.588-.862.245-.217.53-.377.856-.485a5.174 5.174 0 011.017-.24 13.2 13.2 0 01.97-.097l.583-.034V.343H25.33v.445l.582.034c.303.017.628.052.977.097.342.046.679.126 1.01.24.325.108.611.268.856.485.268.258.468.543.588.863.12.32.2.628.229.924.034.297.045.548.04.748v16.306zM62.017 0L54.55 18.019c-.251.588-.48 1.09-.685 1.501-.206.411-.383.754-.537 1.028-.154.268-.285.486-.388.657a7.735 7.735 0 01-.45.656 5.5 5.5 0 01-.72.77 4.725 4.725 0 01-1.034.698c-.4.205-.862.354-1.393.445l-.65.103v.445H60.99v-.445l-.856-.069a6.594 6.594 0 01-1.08-.171 4.329 4.329 0 01-1.084-.423 2.542 2.542 0 01-.85-.742 2.386 2.386 0 01-.383-.913 3.746 3.746 0 01-.057-1.08c.028-.364.108-.707.234-1.021l1.302-3.186h8.77l1.54 3.768c.092.211.166.44.235.69.068.258.102.503.108.749-.006.508-.103.913-.297 1.21a1.798 1.798 0 01-.73.674 2.212 2.212 0 01-.56.222c-.217.057-.48.11-.8.149-.319.04-.713.074-1.175.108l-.514.035v.445H78.22v-.445l-.548-.034a5.405 5.405 0 01-1.199-.206 5.612 5.612 0 01-1.085-.423 3.686 3.686 0 01-.833-.57 3.71 3.71 0 01-.577-.783 13.16 13.16 0 01-.628-1.29c-.228-.53-.514-1.21-.85-2.038L64.93 0h-2.912zm4.111 13.874h-7.057l3.494-8.427h.069l3.494 8.427zM88.567 3.083h2.535c.2-.006.451.006.754.029.302.023.627.068.981.148.355.074.708.194 1.062.354.36.166.691.388 1.005.668.286.263.543.611.777 1.05.228.44.434.926.605 1.457.177.536.32 1.079.428 1.627.108.548.177 1.067.211 1.553h.446V.343H75.515v9.626h.446c.034-.486.108-1.005.217-1.553.102-.548.245-1.09.422-1.627.171-.531.377-1.017.61-1.456.23-.44.486-.788.772-1.051.314-.28.645-.502 1.004-.668.355-.16.709-.28 1.063-.354.353-.08.68-.125.982-.148.302-.023.553-.035.753-.029h2.535v17.402c.006.2-.005.451-.04.748a3.634 3.634 0 01-.228.925c-.12.314-.32.605-.588.862-.246.211-.531.377-.857.486a5.633 5.633 0 01-1.01.24c-.349.045-.674.073-.977.097l-.582.034v.445h12.812v-.445l-.583-.034a17.101 17.101 0 01-.97-.098 5.571 5.571 0 01-1.016-.24 2.541 2.541 0 01-.857-.485 2.456 2.456 0 01-.588-.862c-.12-.32-.2-.628-.228-.925a5.379 5.379 0 01-.04-.748V3.083zM132.21.343h-10.277l-6.406 16.272h-.103L109.018.343H98.33v.445l.583.034c.302.017.627.052.976.097.342.046.679.126 1.01.24.326.108.611.268.857.485.268.258.468.543.588.863.119.32.199.628.228.924.034.297.046.548.04.748V19.8c.006.263-.011.582-.045.96-.035.376-.115.758-.24 1.141-.12.383-.314.708-.571.983a2.61 2.61 0 01-.845.53c-.337.137-.686.24-1.04.308a6.67 6.67 0 01-.958.12l-.583.035v.445h11.544v-.445l-.582-.034a6.67 6.67 0 01-.959-.12 5.566 5.566 0 01-1.039-.309 2.6 2.6 0 01-.845-.53 2.24 2.24 0 01-.48-.743 4 4 0 01-.257-.88 8.124 8.124 0 01-.102-.833 14.324 14.324 0 01-.018-.628V3.666h.103l8.153 20.656h1.576l8.153-20.656h.103v16.82c.005.2-.006.45-.04.747a3.424 3.424 0 01-.229.925 2.37 2.37 0 01-.588.862c-.245.211-.531.377-.856.486a5.62 5.62 0 01-1.011.24c-.348.045-.673.073-.976.097l-.582.034v.445h12.812v-.445l-.583-.034a17.233 17.233 0 01-.971-.098 5.415 5.415 0 01-1.01-.24 2.506 2.506 0 01-.862-.485 2.447 2.447 0 01-.588-.862c-.12-.32-.2-.628-.229-.925a6.42 6.42 0 01-.039-.748V4.18c-.006-.2.011-.45.039-.748.029-.296.109-.605.229-.925.126-.32.319-.604.588-.862.245-.217.531-.377.862-.485a5.027 5.027 0 011.01-.24c.343-.045.669-.08.971-.097l.583-.034V.343zM144.781 0l-7.467 18.019c-.251.588-.48 1.09-.685 1.501-.206.411-.383.754-.537 1.028-.154.268-.286.486-.388.657a7.895 7.895 0 01-.451.656 5.495 5.495 0 01-.72.77 4.722 4.722 0 01-1.033.698c-.4.205-.862.354-1.393.445l-.651.103v.445h12.298v-.445l-.857-.069a6.611 6.611 0 01-1.079-.171 4.339 4.339 0 01-1.085-.423 2.548 2.548 0 01-.85-.742 2.385 2.385 0 01-.382-.913 3.76 3.76 0 01-.058-1.08c.029-.364.109-.707.235-1.021l1.301-3.186h8.77l1.541 3.768c.092.211.166.44.234.69.069.258.103.503.109.749-.006.508-.103.913-.297 1.21a1.794 1.794 0 01-.731.674 2.194 2.194 0 01-.559.222c-.217.057-.48.11-.8.149-.319.04-.713.074-1.176.108l-.514.035v.445h13.429v-.445l-.548-.034a5.391 5.391 0 01-1.199-.206 5.61 5.61 0 01-1.085-.423 3.695 3.695 0 01-.834-.57 3.752 3.752 0 01-.576-.783 13.05 13.05 0 01-.628-1.29c-.229-.53-.514-1.21-.851-2.038L147.694 0h-2.913zm4.112 13.874h-7.057l3.494-8.427h.068l3.495 8.427zM159.752.343v.445l.651.137c.416.097.845.28 1.284.542.44.263.862.565 1.267.914.406.348.766.696 1.08 1.045l7.913 8.804-6.68 7.776c-.114.143-.28.314-.485.52a25.651 25.651 0 01-1.37 1.261c-.217.189-.4.337-.543.445a9.464 9.464 0 01-1.747 1.017c-.622.28-1.239.49-1.85.628v.445h13.463v-.445l-.822-.069c-.645-.057-1.142-.131-1.496-.217a13.1 13.1 0 01-.697-.194 2.945 2.945 0 01-.69-.36 1.737 1.737 0 01-.537-.576c-.137-.234-.206-.526-.211-.88a2.1 2.1 0 01.217-.844c.137-.297.291-.572.468-.822.177-.252.325-.452.445-.595l4.351-5.07 4.693 5.173c.245.263.474.537.691.817.216.285.399.57.536.868.137.29.206.588.211.885-.005.336-.097.616-.279.839a1.976 1.976 0 01-.714.53 4.174 4.174 0 01-1.084.344 8.92 8.92 0 01-1.211.137l-.993.034v.445H190v-.445a6.187 6.187 0 01-2.638-.993 11.427 11.427 0 01-1.804-1.57 60.977 60.977 0 01-1.827-2.028l-7.297-8.153 4.625-5.343c.331-.383.68-.789 1.045-1.223.371-.434.765-.856 1.187-1.267.418-.411.874-.782 1.365-1.108a9.168 9.168 0 011.005-.559 9.555 9.555 0 011.164-.457 7.06 7.06 0 011.188-.285l.685-.103V.343h-13.771v.445l.856.069c.629.05 1.143.142 1.542.268.4.126.708.28.925.45.252.19.434.395.537.623.103.234.154.491.149.782a2.878 2.878 0 01-.149.92 3.046 3.046 0 01-.343.708 4.963 4.963 0 01-.399.53l-3.426 4.009-4.864-5.413c-.183-.206-.314-.388-.383-.548a1.034 1.034 0 01-.097-.445c-.006-.263.057-.52.2-.771.137-.252.388-.474.759-.668.177-.08.383-.155.622-.217.24-.063.486-.114.731-.154.246-.034.468-.063.668-.074l.788-.069V.343h-13.291zM.492 35.612c.147-.092.31-.176.487-.255.178-.077.366-.14.563-.187.2-.049.401-.072.605-.074.283 0 .531.049.743.145.213.097.377.238.496.424.117.188.178.416.18.686-.002.204-.049.393-.145.57a1.464 1.464 0 01-.397.46 1.902 1.902 0 01-.592.311 2.382 2.382 0 01-.731.114h-.458v.774h.47c.203 0 .406.014.61.045.204.03.398.08.582.15a1.8 1.8 0 01.489.282c.143.117.256.262.338.434.084.172.125.378.127.614 0 .291-.07.55-.209.774-.14.227-.344.403-.612.532-.27.127-.596.194-.986.196a3.424 3.424 0 01-.656-.071 4.093 4.093 0 01-.616-.176 3.476 3.476 0 01-.51-.235l-.27.798c.308.18.64.313.993.395a4.635 4.635 0 001.924.039c.28-.055.54-.139.782-.254a2.37 2.37 0 00.643-.444c.186-.182.33-.396.436-.648a2.27 2.27 0 00.16-.87 1.974 1.974 0 00-.262-.994 1.894 1.894 0 00-.684-.676 2.494 2.494 0 00-.989-.314v-.022c.309-.073.584-.2.828-.38.245-.18.441-.403.583-.67a1.89 1.89 0 00.22-.886c-.004-.41-.102-.758-.298-1.045a1.863 1.863 0 00-.813-.66c-.348-.153-.75-.23-1.212-.23a4 4 0 00-1.168.165c-.343.11-.65.252-.92.432l.27.751zm6.358-1.209v3.333c.003.318-.004.647-.02.983a9.66 9.66 0 01-.087.975 4.262 4.262 0 01-.21.853 1.666 1.666 0 01-.375.614 1.62 1.62 0 01-.833.422l.13.821c.154-.001.304-.02.455-.056a2.555 2.555 0 00.764-.32c.22-.152.401-.345.548-.578a3.21 3.21 0 00.346-.791c.086-.296.15-.61.191-.941.044-.335.07-.674.083-1.024.013-.35.02-.697.017-1.041V35.26h2.605v7.05h1.032v-7.907H6.85zm10.5 5.42l.845 2.487h1.09l-2.698-7.907h-1.22L12.67 42.31h1.056l.82-2.486h2.805zm-2.593-.797l.774-2.288c.082-.242.155-.483.218-.725.064-.24.125-.477.181-.706h.024c.056.227.12.462.184.7.064.238.14.485.226.743l.787 2.276h-2.394zm7.19 3.284h1.033v-7.038h2.417v-.869h-5.853v.869h2.404v7.038zm7.52-8.047c-.53.002-1.018.1-1.462.295-.446.196-.831.475-1.16.839a3.865 3.865 0 00-.762 1.31 5.114 5.114 0 00-.276 1.71c.002.599.088 1.144.26 1.637.173.491.415.915.73 1.271.315.356.69.63 1.124.823.434.192.913.29 1.44.291a3.83 3.83 0 001.158-.174 3.333 3.333 0 001.803-1.354c.225-.335.401-.722.524-1.162.123-.44.186-.932.188-1.474a5.053 5.053 0 00-.253-1.62 3.686 3.686 0 00-.717-1.27 3.169 3.169 0 00-1.124-.827 3.616 3.616 0 00-1.473-.295zm-.035.833a2.199 2.199 0 011.623.679c.202.21.37.453.503.727.133.273.232.567.299.875.064.311.098.626.098.945 0 .452-.057.876-.169 1.271a3.357 3.357 0 01-.49 1.044 2.38 2.38 0 01-.796.71c-.315.17-.675.256-1.08.26a2.31 2.31 0 01-.885-.17 2.27 2.27 0 01-.706-.472 2.758 2.758 0 01-.516-.706 3.64 3.64 0 01-.319-.88 4.823 4.823 0 01-.006-1.993c.067-.321.169-.622.305-.9.135-.276.305-.518.509-.727.203-.208.442-.37.713-.486.272-.117.577-.175.917-.177zm4.059-.693l2.628 5.35a.732.732 0 01.084.245.443.443 0 01-.049.236 4.151 4.151 0 01-.237.448c-.093.156-.203.3-.33.438a1.623 1.623 0 01-.434.332c-.163.084-.346.13-.548.131-.087 0-.161-.002-.224-.008a1.097 1.097 0 01-.163-.027l-.094.833c.065.023.143.041.235.053.094.011.207.017.34.017.35 0 .673-.082.966-.244.293-.164.567-.407.817-.73.141-.183.278-.39.409-.625.133-.235.26-.483.383-.747.124-.264.243-.534.356-.808.115-.275.225-.545.33-.81l1.666-4.084h-1.08l-1.242 3.356-.259.772c-.078.233-.152.45-.223.647h-.035a39.643 39.643 0 00-.563-1.384l-1.571-3.39H33.49zm12.294 6.84a2.846 2.846 0 01-.477.174 4.638 4.638 0 01-1.2.154c-.64-.003-1.185-.133-1.635-.39a2.56 2.56 0 01-1.032-1.1c-.239-.473-.359-1.036-.36-1.689.001-.52.076-.981.22-1.386.147-.403.357-.745.626-1.023.272-.28.597-.49.974-.635.38-.145.8-.217 1.265-.217.33.002.63.033.897.094.269.06.497.139.686.234l.259-.833c-.09-.048-.221-.1-.391-.154-.17-.053-.38-.1-.626-.137a5.862 5.862 0 00-.86-.06 4.616 4.616 0 00-1.68.299c-.504.198-.938.48-1.304.845a3.76 3.76 0 00-.845 1.31 4.676 4.676 0 00-.3 1.698c.003.652.101 1.226.294 1.727.194.498.466.917.818 1.255.35.34.76.596 1.233.77.472.172.988.26 1.55.26a7.27 7.27 0 00.887-.054 5.45 5.45 0 00.712-.14 2.57 2.57 0 00.488-.181l-.2-.821zm2.99 1.067h1.033v-7.038h2.417v-.869h-5.854v.869h2.405v7.038zm7.52-8.047a3.62 3.62 0 00-1.462.295c-.446.196-.83.475-1.16.839a3.863 3.863 0 00-.762 1.31 5.114 5.114 0 00-.276 1.71c.002.599.088 1.144.26 1.637.172.491.415.915.73 1.271.315.356.69.63 1.124.823.434.192.913.29 1.44.291.405 0 .792-.058 1.158-.174a3.336 3.336 0 001.803-1.354c.225-.335.401-.722.524-1.162.123-.44.186-.932.187-1.474a5.037 5.037 0 00-.252-1.62 3.68 3.68 0 00-.717-1.27 3.172 3.172 0 00-1.124-.827 3.618 3.618 0 00-1.473-.295zm-.035.833a2.194 2.194 0 011.623.679c.202.21.37.453.503.727.133.273.232.567.298.875.065.311.099.626.099.945 0 .452-.057.876-.169 1.271a3.36 3.36 0 01-.49 1.044 2.38 2.38 0 01-.796.71c-.315.17-.675.256-1.08.26a2.31 2.31 0 01-.885-.17 2.27 2.27 0 01-.706-.472 2.764 2.764 0 01-.516-.706 3.64 3.64 0 01-.319-.88 4.54 4.54 0 01-.107-.987c0-.346.033-.682.101-1.005.067-.322.169-.623.305-.9.136-.277.305-.52.509-.728.203-.208.442-.37.714-.486.271-.117.576-.175.916-.177zm4.927 7.19c.17.024.389.046.655.065.266.018.577.028.929.03.645 0 1.193-.059 1.642-.18.452-.121.812-.307 1.08-.559a2.061 2.061 0 00.68-1.584 2.025 2.025 0 00-.149-.779 1.865 1.865 0 00-.385-.58 2.274 2.274 0 00-1.097-.612v-.035c.276-.1.512-.236.712-.409.199-.172.353-.37.461-.598a1.71 1.71 0 00.164-.73 1.818 1.818 0 00-.18-.816 1.628 1.628 0 00-.488-.579 2.052 2.052 0 00-.545-.327 3.143 3.143 0 00-.706-.187 5.93 5.93 0 00-.908-.061 9.915 9.915 0 00-1.34.084 5.368 5.368 0 00-.525.092v7.766zm1.02-7.084c.08-.02.192-.035.337-.05.144-.013.334-.02.567-.02.346-.003.649.042.905.13.259.088.46.227.602.419.143.189.216.436.217.74 0 .257-.068.486-.203.687-.135.2-.329.358-.582.473-.252.117-.558.176-.915.178h-.927v-2.557zm0 3.32h.845c.282 0 .544.029.79.088.245.058.461.15.65.273.187.123.334.281.44.475.105.192.16.423.161.688a1.5 1.5 0 01-.168.725 1.29 1.29 0 01-.45.476 2.041 2.041 0 01-.648.258c-.243.053-.497.08-.763.078-.181 0-.344-.004-.485-.01a3.43 3.43 0 01-.371-.037v-3.015zm10.652 2.72a2.85 2.85 0 01-.476.175 4.635 4.635 0 01-1.2.154c-.64-.003-1.186-.133-1.636-.39a2.556 2.556 0 01-1.032-1.1c-.238-.473-.358-1.036-.36-1.689.002-.52.076-.981.221-1.386.147-.403.356-.745.626-1.023.271-.28.596-.49.974-.635.379-.145.799-.217 1.265-.217.33.002.63.033.897.094.268.06.497.139.686.234l.258-.833c-.09-.048-.22-.1-.391-.154-.17-.053-.379-.1-.625-.137a5.861 5.861 0 00-.86-.06 4.617 4.617 0 00-1.68.299c-.505.198-.939.48-1.305.845a3.76 3.76 0 00-.844 1.31 4.676 4.676 0 00-.301 1.698c.004.652.102 1.226.295 1.727.194.498.465.917.818 1.255.35.34.76.596 1.233.77.472.172.987.26 1.549.26.322-.001.617-.02.888-.054.269-.037.508-.084.711-.14.204-.058.366-.116.489-.181l-.2-.821zm1.49-6.839v7.907h1.02v-3.625h.33c.331 0 .617.044.855.128.237.086.44.205.607.361.165.155.306.34.422.556.117.215.22.453.309.715l.223.64c.074.218.152.431.234.641.082.207.172.403.27.584h1.091a10.795 10.795 0 01-.31-.713 28.076 28.076 0 01-.273-.743c-.09-.254-.185-.514-.285-.785a5.656 5.656 0 00-.33-.744 2.713 2.713 0 00-.436-.61 2.124 2.124 0 00-.607-.444 2.722 2.722 0 00-.844-.242l2.991-3.626h-1.22l-2.71 3.508h-.317v-3.508h-1.02zm6.358 0v7.907h1.09l2.476-3.941c.274-.436.536-.878.79-1.326.254-.447.481-.889.676-1.326l.035.013c-.026.33-.046.66-.06.99-.014.333-.021.68-.027 1.042-.004.364-.006.757-.006 1.181v3.367h.962v-7.907h-1.02l-2.558 4.071a41.32 41.32 0 00-.798 1.353c-.244.433-.463.855-.657 1.263l-.035-.011c.024-.35.041-.704.054-1.06.015-.356.024-.722.032-1.099.006-.377.008-.772.008-1.184v-3.333h-.962zm11.802 3.356h-3.062V35.26h3.25v-.857h-4.283v7.907h4.458v-.856h-3.425v-2.85h3.062v-.845zm66.331-3.356v7.907h1.032v-3.706h3.825v3.706h1.032v-7.907h-1.032v3.309h-3.825v-3.309h-1.032zm10.851-.14a3.62 3.62 0 00-1.463.295 3.37 3.37 0 00-1.159.839 3.855 3.855 0 00-.763 1.31 5.106 5.106 0 00-.275 1.71c.002.599.088 1.144.26 1.637.172.491.414.915.729 1.271.315.356.69.63 1.124.823.434.192.913.29 1.441.291.405 0 .792-.058 1.158-.174a3.348 3.348 0 001.802-1.355c.225-.334.402-.72.524-1.161.123-.44.186-.932.188-1.474a5.064 5.064 0 00-.252-1.62 3.68 3.68 0 00-.718-1.27 3.168 3.168 0 00-1.124-.827 3.613 3.613 0 00-1.472-.295zm-.036.833a2.2 2.2 0 011.624.679c.201.21.369.453.502.727.133.273.233.567.299.875.064.311.098.626.098.945 0 .452-.057.876-.168 1.271a3.354 3.354 0 01-.491 1.044 2.377 2.377 0 01-.796.71c-.314.17-.674.256-1.079.26a2.302 2.302 0 01-.885-.17 2.26 2.26 0 01-.706-.472 2.754 2.754 0 01-.517-.706 3.627 3.627 0 01-.318-.88 4.81 4.81 0 01-.006-1.993c.066-.321.168-.622.304-.9.136-.276.306-.518.509-.727.203-.208.442-.37.714-.486.272-.117.576-.175.916-.177zm4.294-.693l2.792 3.638a2.472 2.472 0 00-.796.224 1.973 1.973 0 00-.578.43 2.865 2.865 0 00-.423.614 5.995 5.995 0 00-.326.773 40.36 40.36 0 00-.246.745c-.079.25-.163.498-.251.747a8.67 8.67 0 01-.301.736h1.044c.086-.177.164-.375.239-.59.072-.215.143-.43.209-.65.066-.218.131-.424.197-.613.092-.272.192-.514.297-.733.108-.218.235-.403.384-.557.148-.155.332-.274.551-.357.217-.081.483-.125.798-.125h.364v3.625h.985v-3.625h.352c.315 0 .58.044.799.125.217.083.401.202.55.357.149.154.275.34.383.557.105.219.206.461.297.733.063.19.126.395.192.614.064.218.134.434.207.649.074.215.157.413.246.59h1.044a8.894 8.894 0 01-.289-.736 23.387 23.387 0 01-.242-.751 25.756 25.756 0 00-.243-.754 5.799 5.799 0 00-.328-.776 2.806 2.806 0 00-.429-.617 1.965 1.965 0 00-.586-.429 2.39 2.39 0 00-.803-.206l2.803-3.638h-1.184l-2.452 3.508h-.317v-3.508h-.985v3.508h-.318l-2.451-3.508h-1.185zm10.03 0v7.907h1.091l2.475-3.941c.274-.436.536-.878.79-1.326.254-.447.481-.889.676-1.326l.035.013c-.027.33-.046.66-.06.99-.014.333-.021.68-.027 1.042-.004.364-.007.757-.007 1.181v3.367h.963v-7.907h-1.021l-2.557 4.071c-.287.468-.554.919-.798 1.353-.244.433-.463.855-.657 1.263l-.035-.011c.023-.35.041-.704.055-1.06.013-.356.023-.722.031-1.099.006-.377.008-.772.008-1.184v-3.333h-.962z" fill="#1F1C21"/></svg><svg fill="none" viewBox="0 0 18 13" id="mail-icon" xmlns="http://www.w3.org/2000/svg"><path d="M1 1l7.4 5.55a1 1 0 001.2 0L17 1" stroke="#fff"/><rect x=".5" y=".5" width="17" height="12" rx="1.5" stroke="#fff"/></svg><svg viewBox="0 0 22 29" id="personal-cabinet" xmlns="http://www.w3.org/2000/svg"><path d="M10.594 15.312h.167c1.524-.029 2.757-.619 3.667-1.747 2.003-2.487 1.67-6.748 1.634-7.155-.13-3.053-1.441-4.514-2.523-5.196-.807-.51-1.748-.785-2.8-.808h-.088c-.577 0-1.711.104-2.799.785-1.092.682-2.424 2.143-2.554 5.219-.036.407-.37 4.668 1.634 7.155.905 1.128 2.138 1.718 3.662 1.747zM6.687 6.553c0-.017.005-.034.005-.046.172-4.107 2.82-4.548 3.954-4.548h.063c1.404.034 3.792.664 3.953 4.548 0 .017 0 .035.006.046.005.04.369 3.935-1.285 5.986-.656.814-1.53 1.215-2.68 1.226h-.052c-1.144-.011-2.023-.412-2.674-1.226-1.649-2.04-1.295-5.952-1.29-5.986z"/><path d="M21.368 22.38v-.017c0-.046-.005-.091-.005-.143-.031-1.134-.099-3.786-2.357-4.634-.015-.006-.036-.012-.052-.017-2.346-.66-4.297-2.148-4.318-2.166-.317-.246-.754-.16-.978.19-.224.349-.146.83.172 1.076.088.07 2.159 1.656 4.75 2.39 1.212.474 1.347 1.9 1.384 3.207 0 .052 0 .097.005.143.005.516-.026 1.312-.11 1.77-.842.527-4.146 2.349-9.172 2.349-5.004 0-8.329-1.827-9.177-2.354-.083-.459-.12-1.255-.11-1.77 0-.046.006-.092.006-.144.037-1.306.172-2.732 1.384-3.208 2.59-.733 4.661-2.325 4.75-2.388.317-.247.395-.728.172-1.077-.224-.35-.661-.436-.979-.19-.02.018-1.96 1.507-4.318 2.166a.613.613 0 00-.052.017C.105 18.434.038 21.086.007 22.214c0 .052 0 .098-.006.144v.017c-.005.298-.01 1.827.266 2.595a.723.723 0 00.27.36c.156.115 3.897 2.739 10.156 2.739 6.258 0 9.999-2.63 10.155-2.738a.755.755 0 00.27-.361c.26-.762.255-2.292.25-2.59z"/></svg><svg fill="none" viewBox="0 0 15 16" id="phone-icon" xmlns="http://www.w3.org/2000/svg"><path d="M14.614 11.801L12.75 9.812a1.263 1.263 0 00-1.865 0l-.848.904a.957.957 0 01-1.412 0L4.95 6.794a1.116 1.116 0 010-1.507l.847-.904a1.473 1.473 0 000-1.99L3.933.412A1.262 1.262 0 002.07.41c-.384.406-.507.537-.68.718-1.853 1.978-1.853 5.196 0 7.173l5.822 6.212c1.858 1.982 4.866 1.983 6.724 0l.678-.723a1.475 1.475 0 000-1.989zM2.69 1.074a.421.421 0 01.622 0l1.865 1.983a.49.49 0 010 .663l-.311.332-2.485-2.65.31-.328zM7.833 13.85l-5.82-6.212C.577 6.108.498 3.706 1.77 2.075l2.477 2.643c-.65.787-.624 1.987.082 2.74l3.674 3.921c.705.752 1.83.783 2.568.087l2.478 2.643c-1.524 1.353-3.771 1.282-5.216-.259zm6.16-.723l-.311.332-2.486-2.652.31-.332a.42.42 0 01.622 0l1.865 1.989a.492.492 0 010 .663z" fill="#fff"/></svg><svg viewBox="0 0 21 19" id="product-cart-icon" xmlns="http://www.w3.org/2000/svg"><path d="M5.243 4.421h13.364a1 1 0 01.961 1.278l-.728 2.524a3 3 0 01-2.882 2.168H6.41M.854 1h2.242a2 2 0 011.968 1.647l1.598 8.9a2 2 0 001.968 1.646h9.585M10.272 16.7c0 .45-.416.92-1.065.92s-1.066-.47-1.066-.92c0-.451.417-.92 1.066-.92s1.065.469 1.065.92zM18.26 16.7c0 .45-.416.92-1.065.92-.648 0-1.065-.47-1.065-.92 0-.451.417-.92 1.065-.92.65 0 1.066.469 1.066.92z"/></svg><svg viewBox="0 0 28 25" id="product-favorites-icon" xmlns="http://www.w3.org/2000/svg"><path d="M20.1 0c-2.383 0-4.614 1.009-6.1 2.7C12.514 1.008 10.283 0 7.9 0 3.544 0 0 3.313 0 7.385c0 3.188 2.034 6.877 6.045 10.962 3.087 3.144 6.445 5.578 7.4 6.249l.555.39.554-.39c.956-.671 4.314-3.105 7.4-6.249C25.967 14.262 28 10.574 28 7.385 28 3.313 24.456 0 20.1 0zm.495 17.18c-2.54 2.586-5.27 4.676-6.595 5.64-1.325-.964-4.056-3.054-6.595-5.64-3.637-3.704-5.559-7.091-5.559-9.795 0-3.12 2.716-5.66 6.054-5.66 2.196 0 4.224 1.12 5.293 2.922L14 6.008l.807-1.361c1.069-1.802 3.097-2.921 5.293-2.921 3.338 0 6.054 2.538 6.054 5.659 0 2.704-1.922 6.091-5.56 9.795z"/></svg><svg viewBox="0 0 26 25" id="scales-icon" xmlns="http://www.w3.org/2000/svg"><path d="M25.956 12.527l-.022.012-3.73-9.284h1.702a.553.553 0 000-1.105h-10.4V.553a.553.553 0 00-1.106 0v1.591H2.006a.553.553 0 000 1.105H3.78L.044 12.528a.553.553 0 00-.044.204 4.595 4.595 0 109.19 0 .553.553 0 00-.044-.204l-3.73-9.284H12.4V20.33c-2.635.2-4.697 1.802-4.697 3.741 0 .306.248.553.553.553h9.394a.553.553 0 00.553-.553c0-1.94-2.061-3.542-4.697-3.74V3.243h7.056l-3.708 9.284a.554.554 0 00-.044.204 4.595 4.595 0 109.19 0 .554.554 0 00-.044-.204zM4.592 16.23a3.493 3.493 0 01-3.443-2.934h6.864a3.493 3.493 0 01-3.42 2.934zm3.222-4.04H1.382l3.221-8.018 3.21 8.018zm9.184 11.329H8.902c.41-1.188 2.095-2.106 4.046-2.106 1.95 0 3.641.918 4.05 2.106zM21.38 4.178l3.21 8.012H18.16l3.221-8.012zm0 12.052v.005a3.492 3.492 0 01-3.42-2.94h6.863a3.493 3.493 0 01-3.443 2.935z"/></svg><svg fill="none" viewBox="0 0 13 12" id="search-icon" xmlns="http://www.w3.org/2000/svg"><circle cx="4.5" cy="4.5" r="4" stroke="#000" stroke-opacity=".5"/><path transform="matrix(.7099 .7043 -.7099 .7043 7 7)" stroke="#000" stroke-opacity=".5" d="M0-.5h6.557"/></svg><svg viewBox="0 0 22 20" id="star-icon" xmlns="http://www.w3.org/2000/svg"><path d="M11 0l2.47 7.6h7.992l-6.466 4.698 2.47 7.601L11 15.202l-6.466 4.697 2.47-7.6L.538 7.6H8.53L11 0z"/></svg><svg viewBox="0 0 48 48" id="tg-icon" xmlns="http://www.w3.org/2000/svg"><path fill="#29b6f6" d="M24 4a20 20 0 100 40 20 20 0 100-40z"/><path fill="#fff" d="M33.95 15l-3.746 19.126s-.161.874-1.245.874c-.576 0-.873-.274-.873-.274l-8.114-6.733-3.97-2.001-5.095-1.355S10 24.375 10 23.625c0-.625.933-.923.933-.923l21.316-8.468c-.001-.001.651-.235 1.126-.234.292 0 .625.125.625.5 0 .25-.05.5-.05.5z"/><path fill="#b0bec5" d="M23 30.505l-3.426 3.374s-.149.115-.348.12a.494.494 0 01-.219-.043l.964-5.965L23 30.505z"/><path fill="#cfd8dc" d="M29.897 18.196a.5.5 0 00-.701-.093L16 26s2.106 5.892 2.427 6.912c.322 1.021.58 1.045.58 1.045l.964-5.965 9.832-9.096a.499.499 0 00.094-.7z"/></svg><svg viewBox="0 0 48 48" id="vk-icon" xmlns="http://www.w3.org/2000/svg"><linearGradient id="ua" x1="9.766" x2="37.851" y1="5.625" y2="41.881" gradientUnits="userSpaceOnUse"><stop offset="0" stop-color="#33bef0"/><stop offset="1" stop-color="#0a85d9"/></linearGradient><path fill="url(#ua)" d="M24 4C12.954 4 4 12.954 4 24s8.954 20 20 20 20-8.954 20-20S35.046 4 24 4z"/><path d="M31.411 34c-1.185 0-1.771-.77-2.584-1.834a30.034 30.034 0 00-1.212-1.514c-.802-.937-1.324-1.343-1.616-1.519v2.773C25.999 34 24.002 34 23.149 34c-3.154 0-6.549-2.069-9.081-5.535C10.747 23.922 10 19.844 10 18.774 10 17.68 10.724 17 11.89 17h2.644c1.544 0 1.946 1.231 2.119 1.756.78 2.614 1.707 4.458 2.348 5.447v-2.866c-.045-.803-.27-1.112-.508-1.439-.208-.284-.493-.673-.493-1.257 0-.92.711-1.641 1.619-1.641h4.648c.521 0 1.733.196 1.733 2.014v4.821c.043-.04.092-.089.149-.15 1.738-2.049 3.32-5.287 3.336-5.319.398-.889 1.107-1.366 2.046-1.366h2.618c1.231 0 1.816.795 1.85 1.584a2.24 2.24 0 01-.107.753c-.199.989-1.313 2.947-3.603 6.3l-.192.286-.053.09.018.025c.283.405.99 1.259 1.458 1.824 1.118 1.351 2.116 2.883 2.372 3.645.082.303.113.537.108.766-.024.861-.643 1.727-1.971 1.727h-2.618z" opacity=".05"/><path d="M31.411 33.5c-.937 0-1.407-.616-2.187-1.638-.318-.418-.709-.93-1.229-1.537-1.451-1.694-2.11-1.826-2.278-1.826a.994.994 0 00-.2.014c.012.013-.018.125-.018.42v2.971c0 1.323-.939 1.594-2.35 1.594-2.995 0-6.239-1.993-8.678-5.33-3.242-4.436-3.972-8.368-3.972-9.396 0-.821.493-1.274 1.39-1.274h2.644c1.09 0 1.42.729 1.644 1.412 1.176 3.938 2.731 6.314 3.29 6.569.017-.086.033-.243.033-.521v-3.623c-.054-.979-.346-1.379-.604-1.734-.186-.253-.396-.541-.396-.96 0-.65.481-1.141 1.119-1.141h4.648c.817 0 1.232.509 1.232 1.514v5.185c0 .257.157.303.164.304.227-.003.4-.003.848-.473 1.798-2.118 3.409-5.415 3.425-5.448.318-.713.856-1.082 1.595-1.082h2.618c.962 0 1.327.571 1.35 1.105a1.74 1.74 0 01-.085.584c-.255 1.25-2.142 4.12-3.538 6.166-.092.135-.195.29-.195.29-.075.129-.178.305-.182.379-.001.025.012.104.156.306.286.41.976 1.243 1.479 1.852 1.066 1.288 2.048 2.786 2.283 3.485.062.231.086.42.082.595-.017.6-.412 1.238-1.471 1.238h-2.617z" opacity=".07"/><path fill="#fff" d="M34.937 19.041c.046-.151.068-.291.062-.416-.015-.362-.264-.625-.85-.625h-2.618c-.661 0-.966.4-1.144.801 0 0-1.632 3.359-3.513 5.574-.61.641-.92.625-1.25.625-.177 0-.624-.214-.624-.801v-5.185c0-.694-.173-1.014-.732-1.014h-4.649c-.407 0-.619.32-.619.641 0 .667.898.827 1 2.696v3.623c0 .88-.153 1.04-.483 1.04-.89 0-2.642-3-3.815-6.932-.254-.774-.508-1.068-1.169-1.068H11.89c-.763 0-.89.374-.89.774 0 .721.6 4.619 3.875 9.101C17.25 31.125 20.379 33 23.149 33c1.678 0 1.85-.427 1.85-1.094v-2.972c.001-.801.184-.934.718-.934.381 0 1.158.25 2.658 2 1.73 2.018 2.044 3 3.036 3h2.618c.608 0 .957-.255.971-.75a1.542 1.542 0 00-.056-.424c-.194-.576-1.084-1.984-2.194-3.326-.615-.743-1.222-1.479-1.501-1.879-.187-.261-.258-.445-.249-.621.009-.185.105-.361.249-.607-.026 0 3.358-4.751 3.688-6.352z"/></svg><svg viewBox="0 0 50 50" id="zen-icon" xmlns="http://www.w3.org/2000/svg"><path d="M46.894 23.986h.011a.998.998 0 00.996-1.091C46.897 11.852 38.154 3.106 27.11 2.1a1 1 0 00-1.091 1.008c.174 14.676 2.11 20.673 20.875 20.878zm0 2.028c-18.765.205-20.7 6.202-20.874 20.878a1 1 0 001.091 1.008c11.044-1.006 19.787-9.751 20.79-20.795a.999.999 0 00-.262-.769 1.055 1.055 0 00-.745-.322zM22.823 2.105C11.814 3.14 3.099 11.884 2.1 22.897a.999.999 0 00.996 1.09h.012c18.703-.215 20.634-6.209 20.81-20.875a1.003 1.003 0 00-1.095-1.007zM3.107 26.013c-.311-.035-.555.113-.746.321a1.003 1.003 0 00-.262.769c.999 11.013 9.715 19.757 20.724 20.792a1.002 1.002 0 001.094-1.008c-.176-14.665-2.106-20.659-20.81-20.874z"/></svg></svg>